<svg xmlns="http://www.w3.org/2000/svg" x="0px" y="0px" width="100" height="100" viewBox="0,0,256,256"
style="fill:#FAB005;">
<g fill="#fab005" fill-rule="nonzero" stroke="none" stroke-width="1" stroke-linecap="butt" stroke-linejoin="miter" stroke-miterlimit="10" stroke-dasharray="" stroke-dashoffset="0" font-family="none" font-weight="none" font-size="none" text-anchor="none" style="mix-blend-mode: normal"><g transform="scale(10.66667,10.66667)"><path d="M11.25,1.02734c-3.682,0.25 -6.6302,2.35189 -7.1582,5.83789c1.014,-0.569 2.21942,-0.86523 3.35742,-0.86523c1.563,0 2.82878,0.38588 3.80078,1.04688zM12.75,1.02734v6.00391c0.951,-0.651 2.19809,-1.03125 3.74609,-1.03125c1.15,0 2.38206,0.30663 3.41406,0.89063c-0.517,-3.501 -3.47016,-5.61228 -7.16016,-5.86328zM7.44922,7.5c-1.573,0 -3.44092,0.69292 -4.04492,2.16992l-2.4082,6.75195c0.006,1.038 1.39614,2.41439 2.49414,3.27539c1.145,0.897 2.59516,1.4732 3.53516,1.7832l-2.03125,-3.76758l1.32031,-0.71094l1.45313,2.69531l4.23437,-4.59375l4.23438,4.63672l1.45313,-2.72852l1.32422,0.70508l-1.99805,3.75c0.941,-0.312 2.36319,-0.88553 3.49219,-1.76953c1.106,-0.867 2.50814,-2.25783 2.49414,-3.29883l-2.36523,-6.61914c-0.003,-0.009 -0.01067,-0.01444 -0.01367,-0.02344c-0.56,-1.539 -2.52795,-2.25586 -4.12695,-2.25586c-2.498,0 -4.48828,2.01758 -4.48828,2.01758c0,0 -2.01259,-2.01758 -4.55859,-2.01758zM8.49805,10c1.409,0 2.06509,0.8563 2.37109,1.6543c0.25,0.654 0.06445,1.3457 0.06445,1.3457h-4.86328c0,0 -0.19336,-0.6917 0.05664,-1.3457c0.306,-0.798 0.96209,-1.6543 2.37109,-1.6543zM15.5,10c1.408,0 2.06414,0.8563 2.36914,1.6543c0.25,0.654 0.06445,1.3457 0.06445,1.3457h-4.86719c0,0 -0.18555,-0.6917 0.06445,-1.3457c0.305,-0.798 0.96114,-1.6543 2.36914,-1.6543zM11.99609,17.32227l-4.07422,4.41992c0.04,0.01 0.06836,0.01758 0.06836,0.01758c1.015,0.306 6.99153,0.311 8.01953,0c0,0 0.0122,-0.00281 0.0332,-0.00781z"></path></g></g>
</svg>